<svg width="260" height="79" viewBox="0 0 260 79" fill="none" xmlns="http://www.w3.org/2000/svg">
<path d="M61.6091 58.2507C61.2895 58.2507 60.9659 58.119 60.7382 57.8557L40.2877 34.4661C39.9401 34.0711 39.9082 33.4926 40.1998 33.0577L50.5589 21.1674C50.7746 20.8482 51.1342 20.6606 51.5177 20.6606H71.7365C72.12 20.6606 72.4796 20.8522 72.6953 21.1674L83.0544 33.0577C83.35 33.4926 83.3141 34.0711 82.9665 34.4661L62.516 57.8557C62.2843 58.119 61.9647 58.2507 61.6451 58.2507H61.6131H61.6091Z" fill="#5927E7"/>
<path d="M60.7108 24.9568H69.0284C69.4079 24.9568 69.6836 25.0884 69.9313 25.3757C71.2017 26.8919 72.4841 28.3962 73.7545 29.9044C73.8344 29.9962 73.8983 30.1797 73.8744 30.2715C73.8344 30.3633 73.6666 30.4032 73.5468 30.4431H66.144C66.0641 30.4431 65.9882 30.4431 65.8564 30.455C66.0641 30.6625 66.2359 30.8461 66.4077 31.0176C68.5051 33.1643 70.5984 35.3229 72.6958 37.4695C73.1553 37.9403 73.6147 38.4231 74.0701 38.882C74.2938 39.1054 74.4097 39.3408 74.2938 39.6521C74.162 39.9792 73.9383 40.1867 73.5987 40.2426C73.4948 40.2545 73.391 40.2426 73.2831 40.2426C69.7315 40.2426 66.1839 40.2545 62.6444 40.2426C62.0171 40.2426 61.4538 40.869 61.8174 41.5513C63.2436 44.2087 64.6059 46.9019 65.9962 49.5832C66.4676 50.485 66.927 51.4027 67.3984 52.3164C67.5942 52.6955 67.4903 53.0745 67.1228 53.3379C66.8471 53.5453 66.4037 53.5613 66.1 53.2182C64.8176 51.7538 63.5073 50.3014 62.2089 48.8331C61.0184 47.5004 59.8359 46.1638 58.6453 44.8311C57.335 43.3668 56.0366 41.8865 54.7302 40.4102C53.6835 39.2331 52.6488 38.068 51.5981 36.891C51.4943 36.7713 51.3904 36.6436 51.2705 36.5239C51.0468 36.3004 50.9549 36.053 51.0868 35.7538C51.2306 35.4266 51.4663 35.2191 51.8338 35.1912H62.5485C62.7962 35.1912 63.0718 35.1274 63.2836 34.9957C63.6751 34.7483 63.727 34.3294 63.4673 33.9343C62.7602 32.8371 62.0411 31.7358 61.346 30.6386C61.2421 30.483 61.1223 30.455 60.9545 30.455H50.9709C50.5394 30.455 50.2119 30.3114 49.9362 29.9722C48.6658 28.468 47.3954 26.9638 46.125 25.4595L45.9532 25.2361C45.8733 25.0805 45.9132 24.9608 46.097 24.9488H57.3909L54.3587 20.2805C54.2468 20.1089 54.4626 19.9134 54.6224 20.0411L60.7028 24.9608L60.7108 24.9568Z" fill="white"/>
<path d="M104.247 43.528C103.309 43.528 102.481 43.3315 101.758 42.9442C101.034 42.5511 100.508 41.9846 100.172 41.2331L102.076 40.2793C102.244 40.655 102.51 40.9383 102.881 41.1348C103.251 41.3314 103.708 41.4296 104.247 41.4296C104.582 41.4296 104.872 41.3834 105.126 41.2967C105.381 41.21 105.589 41.077 105.746 40.9094C105.902 40.7359 105.977 40.5278 105.977 40.2793C105.977 39.9902 105.896 39.7648 105.728 39.6145C105.56 39.4642 105.335 39.3544 105.04 39.2792C104.75 39.2041 104.42 39.1405 104.056 39.0769C103.662 39.0017 103.245 38.9093 102.811 38.7879C102.377 38.6665 101.972 38.493 101.596 38.2676C101.214 38.0364 100.913 37.73 100.681 37.3369C100.45 36.9438 100.34 36.4582 100.34 35.8802C100.34 35.2559 100.508 34.7009 100.837 34.2211C101.173 33.7355 101.63 33.354 102.209 33.065C102.794 32.7817 103.442 32.6372 104.16 32.6372C105.034 32.6372 105.821 32.8337 106.521 33.2211C107.216 33.6084 107.737 34.1807 108.067 34.9321L106.162 35.886C105.995 35.5449 105.74 35.2674 105.387 35.0593C105.04 34.8512 104.6 34.7472 104.067 34.7472C103.784 34.7472 103.535 34.7876 103.315 34.8743C103.095 34.961 102.927 35.0767 102.8 35.2327C102.672 35.3888 102.614 35.5738 102.614 35.7935C102.614 36.0767 102.701 36.2964 102.881 36.4582C103.06 36.6201 103.297 36.7415 103.604 36.8224C103.911 36.9034 104.252 36.9843 104.629 37.0594C105.022 37.1346 105.433 37.2271 105.856 37.3485C106.278 37.4699 106.666 37.6433 107.025 37.8687C107.384 38.0942 107.679 38.4063 107.905 38.7879C108.13 39.1694 108.246 39.6665 108.246 40.2677C108.246 40.8689 108.067 41.4528 107.708 41.9441C107.349 42.4355 106.868 42.8228 106.261 43.106C105.659 43.3893 104.982 43.528 104.229 43.528H104.247Z" fill="#5927E7"/>
<path d="M116.553 43.5018C114.979 43.5018 113.827 43.074 113.086 42.2243C112.345 41.3687 111.975 40.1837 111.975 38.6691V32.8364H114.255V38.6229C114.255 39.5362 114.446 40.2184 114.822 40.6693C115.204 41.1144 115.777 41.3398 116.547 41.3398C117.317 41.3398 117.896 41.1144 118.272 40.6693C118.654 40.2241 118.839 39.542 118.839 38.6229V32.8364H121.12V38.6691C121.12 40.1895 120.749 41.3745 120.002 42.2243C119.256 43.0798 118.104 43.5018 116.541 43.5018H116.553Z" fill="#5927E7"/>
<path d="M127.829 43.3168L125.549 43.3342V32.8364H129.253C130.254 32.8364 131.111 32.9867 131.823 33.2873C132.535 33.5879 133.09 34.0215 133.478 34.5822C133.872 35.1429 134.063 35.8366 134.063 36.6575C134.063 37.4783 133.872 38.2125 133.496 38.7848C133.114 39.3628 132.575 39.8022 131.881 40.1028C131.18 40.4033 130.353 40.5536 129.38 40.5536H127.303L127.598 38.4495H129.317C129.826 38.4495 130.26 38.3859 130.613 38.2529C130.966 38.1258 131.238 37.9234 131.435 37.6575C131.626 37.3916 131.725 37.0563 131.725 36.6517C131.725 36.2644 131.626 35.9464 131.435 35.6921C131.244 35.4377 130.966 35.247 130.607 35.1256C130.249 35.0042 129.82 34.9406 129.317 34.9406H127.835V43.3168H127.829Z" fill="#5927E7"/>
<path d="M151.664 43.3268H149.412V32.8291H153.458C154.251 32.8291 154.963 32.9505 155.599 33.1933C156.236 33.4361 156.74 33.806 157.104 34.3032C157.475 34.7945 157.66 35.4189 157.66 36.1646C157.66 36.76 157.527 37.2802 157.261 37.7311C156.994 38.182 156.63 38.5404 156.161 38.8006C155.692 39.0607 155.136 39.1879 154.488 39.1879L153.88 38.737C154.494 38.737 154.986 38.8237 155.351 39.0029C155.715 39.1821 156.022 39.4538 156.282 39.8237C156.537 40.1937 156.803 40.6677 157.087 41.2516L158.1 43.3268H155.634L154.696 41.4539C154.54 41.1302 154.372 40.8585 154.199 40.6446C154.019 40.4249 153.805 40.2573 153.55 40.1475C153.296 40.0318 152.972 39.974 152.572 39.974H151.461V37.945H153.458C153.823 37.945 154.141 37.8872 154.419 37.7658C154.696 37.6444 154.911 37.471 155.073 37.234C155.235 36.997 155.316 36.7195 155.316 36.4016C155.316 36.0489 155.235 35.7657 155.073 35.5518C154.911 35.3379 154.691 35.1818 154.419 35.0836C154.141 34.9853 153.834 34.9333 153.487 34.9333H151.693L151.664 43.3268Z" fill="#5927E7"/>
<path d="M181.489 43.5296C180.719 43.5296 180.002 43.3966 179.336 43.1249C178.67 42.8532 178.086 42.4717 177.594 41.9803C177.102 41.489 176.714 40.9051 176.436 40.2404C176.158 39.5756 176.02 38.8588 176.02 38.0899C176.02 37.3211 176.158 36.6043 176.436 35.9395C176.714 35.2747 177.096 34.6967 177.594 34.2053C178.086 33.714 178.67 33.3324 179.336 33.0607C180.002 32.7833 180.719 32.6445 181.489 32.6445C182.259 32.6445 182.988 32.7833 183.654 33.0607C184.314 33.3382 184.898 33.7197 185.396 34.2053C185.894 34.6967 186.282 35.269 186.559 35.9395C186.837 36.6043 186.976 37.3211 186.976 38.0899C186.976 38.8588 186.837 39.5756 186.559 40.2404C186.282 40.9051 185.894 41.489 185.396 41.9803C184.898 42.4717 184.314 42.859 183.654 43.1249C182.994 43.3966 182.27 43.5296 181.489 43.5296ZM181.489 41.3792C181.929 41.3792 182.334 41.2982 182.716 41.1306C183.098 40.9629 183.428 40.7317 183.717 40.4311C184.001 40.1305 184.227 39.7779 184.383 39.379C184.539 38.9802 184.615 38.5524 184.615 38.0899C184.615 37.6275 184.539 37.1882 184.383 36.7951C184.227 36.402 184.007 36.0494 183.717 35.7488C183.428 35.4482 183.098 35.2112 182.716 35.0493C182.334 34.8817 181.929 34.8007 181.489 34.8007C181.049 34.8007 180.644 34.8817 180.262 35.0493C179.88 35.2169 179.55 35.4482 179.261 35.7488C178.977 36.0494 178.751 36.3962 178.595 36.7951C178.439 37.1939 178.364 37.6217 178.364 38.0899C178.364 38.5582 178.439 38.9744 178.595 39.379C178.751 39.7779 178.971 40.1305 179.261 40.4311C179.55 40.7317 179.88 40.9687 180.262 41.1306C180.644 41.2982 181.049 41.3792 181.489 41.3792Z" fill="#5927E7"/>
<path d="M204.229 41.3575V33.5015C204.229 33.068 204.582 32.7153 205.016 32.7153H211.886V34.779H206.532V41.2592H211.979V43.3229H205.016C204.582 43.3229 204.229 42.9703 204.229 42.5367V41.3517V41.3575ZM211.556 39.0567H206L205.699 36.993H211.556V39.0567Z" fill="#5927E7"/>
<path d="M217.366 32.7295L219.548 37.2731H219.606L221.817 32.7295H223.999L220.555 39.2732V43.3313H218.506V39.2732L215.051 32.7295H217.354H217.366Z" fill="#5927E7"/>
<path d="M164.077 32.8291C164.378 32.8291 164.656 32.9967 164.795 33.2627C164.922 33.5054 165.055 33.7771 165.2 34.0777C165.443 34.5749 165.692 35.1067 165.952 35.6848C166.213 36.2628 166.473 36.8525 166.728 37.4537C166.982 38.0548 167.226 38.6214 167.451 39.1532C167.677 38.6214 167.914 38.0548 168.175 37.4537C168.429 36.8525 168.69 36.2628 168.95 35.6848C169.211 35.1067 169.46 34.5749 169.703 34.0777C169.847 33.7771 169.986 33.5054 170.108 33.2627C170.247 32.9967 170.525 32.8291 170.826 32.8291H171.804C172.209 32.8291 172.556 33.1297 172.608 33.5343C172.672 34.0488 172.736 34.6038 172.794 35.1934C172.88 36.0663 172.956 36.9739 173.025 37.9161C173.089 38.8584 173.152 39.8064 173.21 40.7544C173.268 41.7025 173.314 42.5927 173.355 43.4309H171.028C170.999 42.4019 170.959 41.2805 170.907 40.0665C170.855 38.8526 170.779 37.6271 170.675 36.3958C170.49 36.8236 170.287 37.2976 170.062 37.8178C169.836 38.3381 169.616 38.8584 169.396 39.3786C169.176 39.8989 168.962 40.396 168.759 40.87C168.603 41.2342 168.464 41.5522 168.343 41.8354C168.279 41.9915 168.128 42.0898 167.961 42.0898H166.844C166.676 42.0898 166.525 41.9915 166.462 41.8354C166.34 41.5522 166.201 41.2342 166.045 40.87C165.842 40.396 165.628 39.8989 165.408 39.3786C165.188 38.8584 164.962 38.3381 164.743 37.8178C164.517 37.2976 164.314 36.8236 164.129 36.3958C164.025 37.6271 163.95 38.8526 163.898 40.0665C163.845 41.2805 163.805 42.4019 163.776 43.4309H161.449C161.49 42.5927 161.536 41.7025 161.594 40.7544C161.652 39.8064 161.71 38.8584 161.779 37.9161C161.843 36.9739 161.924 36.0663 162.011 35.1934C162.069 34.6038 162.132 34.0488 162.196 33.5343C162.248 33.1297 162.595 32.8291 163 32.8291H164.089H164.077Z" fill="#5927E7"/>
<path d="M192.784 32.7143C193.015 32.7143 193.235 32.8357 193.363 33.0264L197.663 39.7031H197.721V32.7085H199.631V42.7264C199.631 43.1311 199.307 43.4548 198.902 43.4548H198.068C197.825 43.4548 197.594 43.3334 197.46 43.1253L192.9 36.1885H192.842V43.4548H190.932V33.3964C190.932 33.0149 191.238 32.7085 191.62 32.7085H192.79L192.784 32.7143Z" fill="#5927E7"/>
<path d="M137.588 41.3575V33.5015C137.588 33.068 137.941 32.7153 138.375 32.7153H145.245V34.779H139.891V41.2592H145.338V43.3229H138.375C137.941 43.3229 137.588 42.9703 137.588 42.5367V41.3517V41.3575ZM144.915 39.0567H139.359L139.058 36.993H144.915V39.0567Z" fill="#5927E7"/>
</svg>
