<svg width="184" height="39" viewBox="0 0 184 39" fill="none" xmlns="http://www.w3.org/2000/svg">
<path d="M21.6086 38.2507C21.289 38.2507 20.9654 38.119 20.7377 37.8557L0.287217 14.4661C-0.0603493 14.0711 -0.0923099 13.4926 0.199327 13.0577L10.5584 1.16738C10.7741 0.848176 11.1337 0.660645 11.5172 0.660645H31.736C32.1195 0.660645 32.4791 0.852166 32.6948 1.16738L43.0539 13.0577C43.3495 13.4926 43.3136 14.0711 42.966 14.4661L22.5155 37.8557C22.2838 38.119 21.9642 38.2507 21.6446 38.2507H21.6126H21.6086Z" fill="#5927E7"/>
<path d="M20.7103 4.95677H29.0279C29.4074 4.95677 29.6831 5.08844 29.9308 5.37572C31.2012 6.89194 32.4836 8.39618 33.754 9.90441C33.8339 9.99618 33.8978 10.1797 33.8739 10.2715C33.8339 10.3633 33.6661 10.4032 33.5463 10.4431H26.1435C26.0636 10.4431 25.9877 10.4431 25.8559 10.455C26.0636 10.6625 26.2354 10.8461 26.4072 11.0176C28.5046 13.1643 30.598 15.3229 32.6953 17.4695C33.1548 17.9403 33.6142 18.4231 34.0696 18.882C34.2933 19.1054 34.4092 19.3408 34.2933 19.6521C34.1615 19.9792 33.9378 20.1867 33.5982 20.2426C33.4943 20.2545 33.3905 20.2426 33.2826 20.2426C29.731 20.2426 26.1835 20.2545 22.6439 20.2426C22.0166 20.2426 21.4534 20.869 21.8169 21.5513C23.2431 24.2087 24.6054 26.9019 25.9957 29.5832C26.4671 30.485 26.9265 31.4027 27.3979 32.3164C27.5937 32.6955 27.4898 33.0745 27.1223 33.3379C26.8466 33.5453 26.4032 33.5613 26.0996 33.2182C24.8172 31.7538 23.5068 30.3014 22.2084 28.8331C21.0179 27.5004 19.8354 26.1638 18.6449 24.8311C17.3345 23.3668 16.0361 21.8865 14.7297 20.4102C13.683 19.2331 12.6483 18.068 11.5976 16.891C11.4938 16.7713 11.3899 16.6436 11.27 16.5239C11.0463 16.3004 10.9544 16.053 11.0863 15.7538C11.2301 15.4266 11.4658 15.2191 11.8333 15.1912H22.548C22.7957 15.1912 23.0713 15.1274 23.2831 14.9957C23.6746 14.7483 23.7265 14.3294 23.4668 13.9343C22.7597 12.8371 22.0406 11.7358 21.3455 10.6386C21.2416 10.483 21.1218 10.455 20.954 10.455H10.9704C10.539 10.455 10.2114 10.3114 9.93571 9.97224C8.6653 8.468 7.39488 6.96376 6.12446 5.45952L5.95268 5.23607C5.87278 5.08046 5.91273 4.96076 6.0965 4.94879H17.3904L14.3582 0.280456C14.2463 0.108884 14.4621 -0.086627 14.6219 0.041054L20.7023 4.96076L20.7103 4.95677Z" fill="white"/>
<path d="M64.2461 23.528C63.3084 23.528 62.4808 23.3315 61.7573 22.9442C61.0338 22.5511 60.5071 21.9846 60.1714 21.2331L62.0756 20.2793C62.2435 20.655 62.5097 20.9383 62.8801 21.1348C63.2506 21.3314 63.7078 21.4296 64.2461 21.4296C64.5818 21.4296 64.8712 21.3834 65.1258 21.2967C65.3805 21.21 65.5889 21.077 65.7452 20.9094C65.9014 20.7359 65.9767 20.5278 65.9767 20.2793C65.9767 19.9902 65.8956 19.7648 65.7278 19.6145C65.5599 19.4642 65.3342 19.3544 65.039 19.2792C64.7496 19.2041 64.4197 19.1405 64.0551 19.0769C63.6615 19.0017 63.2448 18.9093 62.8107 18.7879C62.3766 18.6665 61.9714 18.493 61.5952 18.2676C61.2132 18.0364 60.9122 17.73 60.6807 17.3369C60.4492 16.9438 60.3392 16.4582 60.3392 15.8802C60.3392 15.2559 60.5071 14.7009 60.837 14.2211C61.1727 13.7355 61.6299 13.354 62.2087 13.065C62.7933 12.7817 63.4416 12.6372 64.1593 12.6372C65.0332 12.6372 65.8204 12.8337 66.5207 13.2211C67.2153 13.6084 67.7362 14.1807 68.0661 14.9321L66.1619 15.886C65.994 15.5449 65.7394 15.2674 65.3863 15.0593C65.039 14.8512 64.5991 14.7472 64.0667 14.7472C63.783 14.7472 63.5342 14.7876 63.3142 14.8743C63.0943 14.961 62.9264 15.0767 62.7991 15.2327C62.6718 15.3888 62.6139 15.5738 62.6139 15.7935C62.6139 16.0767 62.7007 16.2964 62.8801 16.4582C63.0596 16.6201 63.2969 16.7415 63.6036 16.8224C63.9104 16.9034 64.2519 16.9843 64.6281 17.0594C65.0217 17.1346 65.4326 17.2271 65.8551 17.3485C66.2776 17.4699 66.6654 17.6433 67.0243 17.8687C67.3831 18.0942 67.6783 18.4063 67.904 18.7879C68.1298 19.1694 68.2455 19.6665 68.2455 20.2677C68.2455 20.8689 68.0661 21.4528 67.7073 21.9441C67.3484 22.4355 66.868 22.8228 66.2603 23.106C65.6583 23.3893 64.9811 23.528 64.2287 23.528H64.2461Z" fill="#5927E7"/>
<path d="M76.5529 23.5018C74.9785 23.5018 73.8267 23.074 73.0859 22.2243C72.345 21.3687 71.9746 20.1837 71.9746 18.6691V12.8364H74.255V18.6229C74.255 19.5362 74.446 20.2184 74.8223 20.6693C75.2043 21.1144 75.7773 21.3398 76.5471 21.3398C77.3169 21.3398 77.8956 21.1144 78.2719 20.6693C78.6539 20.2241 78.8391 19.542 78.8391 18.6229V12.8364H81.1195V18.6691C81.1195 20.1895 80.7491 21.3745 80.0024 22.2243C79.2558 23.0798 78.104 23.5018 76.5413 23.5018H76.5529Z" fill="#5927E7"/>
<path d="M87.8293 23.3168L85.5488 23.3342V12.8364H89.2531C90.2544 12.8364 91.111 12.9867 91.8229 13.2873C92.5348 13.5879 93.0905 14.0215 93.4783 14.5822C93.8719 15.1429 94.0629 15.8366 94.0629 16.6575C94.0629 17.4783 93.8719 18.2125 93.4956 18.7848C93.1136 19.3628 92.5754 19.8022 91.8808 20.1028C91.1805 20.4033 90.3528 20.5536 89.3804 20.5536H87.3026L87.5978 18.4495H89.3168C89.8261 18.4495 90.2602 18.3859 90.6133 18.2529C90.9663 18.1258 91.2384 17.9234 91.4351 17.6575C91.6261 17.3916 91.7245 17.0563 91.7245 16.6517C91.7245 16.2644 91.6261 15.9464 91.4351 15.6921C91.2441 15.4377 90.9663 15.247 90.6075 15.1256C90.2486 15.0042 89.8203 14.9406 89.3168 14.9406H87.8351V23.3168H87.8293Z" fill="#5927E7"/>
<path d="M111.663 23.3268H109.411V12.8291H113.457C114.25 12.8291 114.962 12.9505 115.598 13.1933C116.235 13.4361 116.739 13.806 117.103 14.3032C117.474 14.7945 117.659 15.4189 117.659 16.1646C117.659 16.76 117.526 17.2802 117.26 17.7311C116.993 18.182 116.629 18.5404 116.16 18.8006C115.691 19.0607 115.135 19.1879 114.487 19.1879L113.879 18.737C114.493 18.737 114.985 18.8237 115.35 19.0029C115.714 19.1821 116.021 19.4538 116.281 19.8237C116.536 20.1937 116.802 20.6677 117.086 21.2516L118.099 23.3268H115.633L114.696 21.4539C114.539 21.1302 114.371 20.8585 114.198 20.6446C114.018 20.4249 113.804 20.2573 113.549 20.1475C113.295 20.0318 112.971 19.974 112.571 19.974H111.46V17.945H113.457C113.822 17.945 114.14 17.8872 114.418 17.7658C114.696 17.6444 114.91 17.471 115.072 17.234C115.234 16.997 115.315 16.7195 115.315 16.4016C115.315 16.0489 115.234 15.7657 115.072 15.5518C114.91 15.3379 114.69 15.1818 114.418 15.0836C114.14 14.9853 113.833 14.9333 113.486 14.9333H111.692L111.663 23.3268Z" fill="#5927E7"/>
<path d="M141.489 23.5296C140.719 23.5296 140.002 23.3966 139.336 23.1249C138.67 22.8532 138.086 22.4717 137.594 21.9803C137.102 21.489 136.714 20.9051 136.436 20.2404C136.158 19.5756 136.02 18.8588 136.02 18.0899C136.02 17.3211 136.158 16.6043 136.436 15.9395C136.714 15.2747 137.096 14.6967 137.594 14.2053C138.086 13.714 138.67 13.3324 139.336 13.0607C140.002 12.7833 140.719 12.6445 141.489 12.6445C142.259 12.6445 142.988 12.7833 143.654 13.0607C144.314 13.3382 144.898 13.7197 145.396 14.2053C145.894 14.6967 146.282 15.269 146.559 15.9395C146.837 16.6043 146.976 17.3211 146.976 18.0899C146.976 18.8588 146.837 19.5756 146.559 20.2404C146.282 20.9051 145.894 21.489 145.396 21.9803C144.898 22.4717 144.314 22.859 143.654 23.1249C142.994 23.3966 142.27 23.5296 141.489 23.5296ZM141.489 21.3792C141.929 21.3792 142.334 21.2982 142.716 21.1306C143.098 20.9629 143.428 20.7317 143.717 20.4311C144.001 20.1305 144.227 19.7779 144.383 19.379C144.539 18.9802 144.615 18.5524 144.615 18.0899C144.615 17.6275 144.539 17.1882 144.383 16.7951C144.227 16.402 144.007 16.0494 143.717 15.7488C143.428 15.4482 143.098 15.2112 142.716 15.0493C142.334 14.8817 141.929 14.8007 141.489 14.8007C141.049 14.8007 140.644 14.8817 140.262 15.0493C139.88 15.2169 139.55 15.4482 139.261 15.7488C138.977 16.0494 138.751 16.3962 138.595 16.7951C138.439 17.1939 138.364 17.6217 138.364 18.0899C138.364 18.5582 138.439 18.9744 138.595 19.379C138.751 19.7779 138.971 20.1305 139.261 20.4311C139.55 20.7317 139.88 20.9687 140.262 21.1306C140.644 21.2982 141.049 21.3792 141.489 21.3792Z" fill="#5927E7"/>
<path d="M164.229 21.3575V13.5015C164.229 13.068 164.582 12.7153 165.016 12.7153H171.886V14.779H166.533V21.2592H171.979V23.3229H165.016C164.582 23.3229 164.229 22.9703 164.229 22.5367V21.3517V21.3575ZM171.557 19.0567H166L165.699 16.993H171.557V19.0567Z" fill="#5927E7"/>
<path d="M177.365 12.7295L179.548 17.2731H179.605L181.816 12.7295H183.998L180.555 19.2732V23.3313H178.506V19.2732L175.05 12.7295H177.354H177.365Z" fill="#5927E7"/>
<path d="M124.077 12.8291C124.378 12.8291 124.656 12.9967 124.795 13.2627C124.922 13.5054 125.055 13.7771 125.2 14.0777C125.443 14.5749 125.692 15.1067 125.952 15.6848C126.213 16.2628 126.473 16.8525 126.728 17.4537C126.982 18.0548 127.226 18.6214 127.451 19.1532C127.677 18.6214 127.914 18.0548 128.175 17.4537C128.429 16.8525 128.69 16.2628 128.95 15.6848C129.211 15.1067 129.46 14.5749 129.703 14.0777C129.847 13.7771 129.986 13.5054 130.108 13.2627C130.247 12.9967 130.525 12.8291 130.826 12.8291H131.804C132.209 12.8291 132.556 13.1297 132.608 13.5343C132.672 14.0488 132.736 14.6038 132.794 15.1934C132.88 16.0663 132.956 16.9739 133.025 17.9161C133.089 18.8584 133.152 19.8064 133.21 20.7544C133.268 21.7025 133.314 22.5927 133.355 23.4309H131.028C130.999 22.4019 130.959 21.2805 130.907 20.0665C130.855 18.8526 130.779 17.6271 130.675 16.3958C130.49 16.8236 130.287 17.2976 130.062 17.8178C129.836 18.3381 129.616 18.8584 129.396 19.3786C129.176 19.8989 128.962 20.396 128.759 20.87C128.603 21.2342 128.464 21.5522 128.343 21.8354C128.279 21.9915 128.128 22.0898 127.961 22.0898H126.844C126.676 22.0898 126.525 21.9915 126.462 21.8354C126.34 21.5522 126.201 21.2342 126.045 20.87C125.842 20.396 125.628 19.8989 125.408 19.3786C125.188 18.8584 124.962 18.3381 124.743 17.8178C124.517 17.2976 124.314 16.8236 124.129 16.3958C124.025 17.6271 123.95 18.8526 123.898 20.0665C123.845 21.2805 123.805 22.4019 123.776 23.4309H121.449C121.49 22.5927 121.536 21.7025 121.594 20.7544C121.652 19.8064 121.71 18.8584 121.779 17.9161C121.843 16.9739 121.924 16.0663 122.011 15.1934C122.069 14.6038 122.132 14.0488 122.196 13.5343C122.248 13.1297 122.595 12.8291 123 12.8291H124.089H124.077Z" fill="#5927E7"/>
<path d="M152.784 12.7143C153.015 12.7143 153.235 12.8357 153.363 13.0264L157.663 19.7031H157.721V12.7085H159.631V22.7264C159.631 23.1311 159.307 23.4548 158.902 23.4548H158.068C157.825 23.4548 157.594 23.3334 157.46 23.1253L152.9 16.1885H152.842V23.4548H150.932V13.3964C150.932 13.0149 151.238 12.7085 151.62 12.7085H152.79L152.784 12.7143Z" fill="#5927E7"/>
<path d="M97.5869 21.3575V13.5015C97.5869 13.068 97.94 12.7153 98.3741 12.7153H105.244V14.779H99.8905V21.2592H105.337V23.3229H98.3741C97.94 23.3229 97.5869 22.9703 97.5869 22.5367V21.3517V21.3575ZM104.914 19.0567H99.358L99.057 16.993H104.914V19.0567Z" fill="#5927E7"/>
</svg>
